<svg xmlns="http://www.w3.org/2000/svg" xmlns:xlink="http://www.w3.org/1999/xlink" width="3840" zoomAndPan="magnify" viewBox="0 0 2880 1597.499947" height="2130" preserveAspectRatio="xMidYMid meet" version="1.0"><defs><g/><clipPath id="d01c0b4c12"><path d="M 991.34375 159.699219 L 1276 159.699219 L 1276 443 L 991.34375 443 Z M 991.34375 159.699219 " clip-rule="nonzero"/></clipPath><clipPath id="07dd489ffd"><path d="M 996 163 L 1333.574219 163 L 1333.574219 600 L 996 600 Z M 996 163 " clip-rule="nonzero"/></clipPath><clipPath id="ea2929d245"><path d="M 1101 589 L 1226 589 L 1226 627.542969 L 1101 627.542969 Z M 1101 589 " clip-rule="nonzero"/></clipPath></defs><g fill="#5ce1e6" fill-opacity="1"><g transform="translate(475.143318, 1253.07064)"><g><path d="M 84.273438 -427.382812 C 44.542969 -427.382812 24.078125 -402.101562 24.078125 -363.578125 L 24.078125 -57.785156 C 24.078125 -20.464844 44.542969 6.019531 84.273438 6.019531 C 124 6.019531 144.46875 -20.464844 144.46875 -57.785156 L 144.46875 -363.578125 C 144.46875 -402.101562 124 -427.382812 84.273438 -427.382812 Z M 84.273438 -427.382812 "/></g></g></g><g fill="#ff8bd2" fill-opacity="1"><g transform="translate(1797.680254, 1253.284006)"><g><path d="M -427.382812 -84.273438 C -427.382812 -44.542969 -402.101562 -24.078125 -363.578125 -24.078125 L -57.785156 -24.078125 C -20.464844 -24.078125 6.019531 -44.542969 6.019531 -84.273438 C 6.019531 -124 -20.464844 -144.46875 -57.785156 -144.46875 L -363.578125 -144.46875 C -402.101562 -144.46875 -427.382812 -124 -427.382812 -84.273438 Z M -427.382812 -84.273438 "/></g></g></g><g clip-path="url(#d01c0b4c12)"><path fill="#ffbd59" d="M 1275.117188 301.269531 C 1275.117188 303.585938 1275.0625 305.902344 1274.945312 308.214844 C 1274.832031 310.53125 1274.664062 312.839844 1274.433594 315.144531 C 1274.207031 317.453125 1273.925781 319.75 1273.582031 322.042969 C 1273.242188 324.332031 1272.847656 326.617188 1272.394531 328.886719 C 1271.941406 331.160156 1271.433594 333.421875 1270.871094 335.667969 C 1270.308594 337.914062 1269.691406 340.148438 1269.015625 342.363281 C 1268.34375 344.582031 1267.617188 346.78125 1266.835938 348.960938 C 1266.054688 351.144531 1265.21875 353.304688 1264.332031 355.445312 C 1263.445312 357.585938 1262.503906 359.703125 1261.515625 361.796875 C 1260.523438 363.890625 1259.480469 365.960938 1258.386719 368.003906 C 1257.292969 370.046875 1256.152344 372.0625 1254.960938 374.050781 C 1253.765625 376.039062 1252.527344 377.996094 1251.238281 379.921875 C 1249.949219 381.847656 1248.617188 383.742188 1247.234375 385.601562 C 1245.851562 387.464844 1244.425781 389.289062 1242.957031 391.078125 C 1241.484375 392.871094 1239.96875 394.625 1238.414062 396.339844 C 1236.855469 398.058594 1235.257812 399.734375 1233.617188 401.375 C 1231.976562 403.011719 1230.300781 404.609375 1228.582031 406.164062 C 1226.863281 407.722656 1225.109375 409.234375 1223.316406 410.703125 C 1221.523438 412.171875 1219.695312 413.597656 1217.832031 414.980469 C 1215.96875 416.359375 1214.074219 417.691406 1212.148438 418.980469 C 1210.21875 420.265625 1208.261719 421.507812 1206.273438 422.699219 C 1204.28125 423.886719 1202.265625 425.03125 1200.21875 426.121094 C 1198.175781 427.214844 1196.105469 428.257812 1194.007812 429.246094 C 1191.914062 430.238281 1189.792969 431.175781 1187.652344 432.0625 C 1185.507812 432.949219 1183.347656 433.78125 1181.164062 434.5625 C 1178.980469 435.34375 1176.777344 436.070312 1174.558594 436.742188 C 1172.339844 437.414062 1170.105469 438.03125 1167.855469 438.597656 C 1165.605469 439.160156 1163.34375 439.667969 1161.070312 440.117188 C 1158.796875 440.570312 1156.511719 440.964844 1154.21875 441.304688 C 1151.925781 441.644531 1149.625 441.929688 1147.316406 442.15625 C 1145.007812 442.382812 1142.699219 442.554688 1140.382812 442.667969 C 1138.066406 442.78125 1135.746094 442.839844 1133.429688 442.839844 C 1131.109375 442.839844 1128.792969 442.78125 1126.476562 442.667969 C 1124.160156 442.554688 1121.847656 442.382812 1119.542969 442.15625 C 1117.234375 441.929688 1114.933594 441.644531 1112.640625 441.304688 C 1110.34375 440.964844 1108.0625 440.570312 1105.789062 440.117188 C 1103.511719 439.667969 1101.25 439.160156 1099 438.597656 C 1096.753906 438.03125 1094.519531 437.414062 1092.300781 436.742188 C 1090.082031 436.070312 1087.878906 435.34375 1085.695312 434.5625 C 1083.511719 433.78125 1081.351562 432.949219 1079.207031 432.0625 C 1077.066406 431.175781 1074.945312 430.238281 1072.847656 429.246094 C 1070.753906 428.257812 1068.683594 427.214844 1066.636719 426.121094 C 1064.59375 425.03125 1062.574219 423.886719 1060.585938 422.699219 C 1058.597656 421.507812 1056.640625 420.265625 1054.710938 418.980469 C 1052.785156 417.691406 1050.886719 416.359375 1049.027344 414.980469 C 1047.164062 413.597656 1045.335938 412.171875 1043.542969 410.703125 C 1041.75 409.234375 1039.996094 407.722656 1038.277344 406.164062 C 1036.558594 404.609375 1034.878906 403.011719 1033.242188 401.375 C 1031.601562 399.734375 1030.003906 398.058594 1028.445312 396.339844 C 1026.886719 394.625 1025.375 392.871094 1023.902344 391.078125 C 1022.429688 389.289062 1021.003906 387.464844 1019.625 385.601562 C 1018.242188 383.742188 1016.90625 381.847656 1015.621094 379.921875 C 1014.332031 377.996094 1013.089844 376.039062 1011.898438 374.050781 C 1010.707031 372.0625 1009.5625 370.046875 1008.472656 368.003906 C 1007.378906 365.960938 1006.335938 363.890625 1005.34375 361.796875 C 1004.351562 359.703125 1003.414062 357.585938 1002.527344 355.445312 C 1001.640625 353.304688 1000.804688 351.144531 1000.023438 348.960938 C 999.242188 346.78125 998.515625 344.582031 997.84375 342.363281 C 997.167969 340.148438 996.550781 337.914062 995.988281 335.667969 C 995.421875 333.421875 994.914062 331.160156 994.464844 328.886719 C 994.011719 326.617188 993.613281 324.332031 993.273438 322.042969 C 992.933594 319.75 992.648438 317.453125 992.421875 315.144531 C 992.195312 312.839844 992.023438 310.53125 991.910156 308.214844 C 991.796875 305.902344 991.742188 303.585938 991.742188 301.269531 C 991.742188 298.953125 991.796875 296.636719 991.910156 294.324219 C 992.023438 292.007812 992.195312 289.699219 992.421875 287.394531 C 992.648438 285.085938 992.933594 282.789062 993.273438 280.496094 C 993.613281 278.203125 994.011719 275.921875 994.464844 273.652344 C 994.914062 271.378906 995.421875 269.117188 995.988281 266.871094 C 996.550781 264.625 997.167969 262.390625 997.84375 260.175781 C 998.515625 257.957031 999.242188 255.757812 1000.023438 253.574219 C 1000.804688 251.394531 1001.640625 249.234375 1002.527344 247.09375 C 1003.414062 244.953125 1004.351562 242.835938 1005.34375 240.742188 C 1006.335938 238.644531 1007.378906 236.578125 1008.472656 234.535156 C 1009.5625 232.492188 1010.707031 230.476562 1011.898438 228.488281 C 1013.089844 226.5 1014.332031 224.542969 1015.621094 222.617188 C 1016.90625 220.691406 1018.242188 218.796875 1019.625 216.9375 C 1021.003906 215.074219 1022.429688 213.25 1023.902344 211.457031 C 1025.375 209.667969 1026.886719 207.914062 1028.445312 206.195312 C 1030.003906 204.480469 1031.601562 202.804688 1033.242188 201.164062 C 1034.878906 199.527344 1036.558594 197.929688 1038.277344 196.375 C 1039.996094 194.816406 1041.75 193.304688 1043.542969 191.835938 C 1045.335938 190.363281 1047.164062 188.941406 1049.027344 187.558594 C 1050.886719 186.179688 1052.785156 184.847656 1054.710938 183.558594 C 1056.640625 182.273438 1058.597656 181.03125 1060.585938 179.839844 C 1062.574219 178.648438 1064.59375 177.507812 1066.636719 176.417969 C 1068.683594 175.324219 1070.753906 174.28125 1072.847656 173.292969 C 1074.945312 172.300781 1077.066406 171.363281 1079.207031 170.476562 C 1081.351562 169.589844 1083.511719 168.757812 1085.695312 167.976562 C 1087.878906 167.195312 1090.082031 166.46875 1092.300781 165.796875 C 1094.519531 165.125 1096.753906 164.503906 1099 163.941406 C 1101.25 163.378906 1103.511719 162.871094 1105.789062 162.421875 C 1108.0625 161.96875 1110.34375 161.570312 1112.640625 161.230469 C 1114.933594 160.890625 1117.234375 160.609375 1119.542969 160.382812 C 1121.847656 160.15625 1124.160156 159.984375 1126.476562 159.871094 C 1128.792969 159.757812 1131.109375 159.699219 1133.429688 159.699219 C 1135.746094 159.699219 1138.066406 159.757812 1140.382812 159.871094 C 1142.699219 159.984375 1145.007812 160.15625 1147.316406 160.382812 C 1149.625 160.609375 1151.925781 160.890625 1154.21875 161.230469 C 1156.511719 161.570312 1158.796875 161.96875 1161.070312 162.421875 C 1163.34375 162.871094 1165.605469 163.378906 1167.855469 163.941406 C 1170.105469 164.503906 1172.339844 165.125 1174.558594 165.796875 C 1176.777344 166.46875 1178.980469 167.195312 1181.164062 167.976562 C 1183.347656 168.757812 1185.507812 169.589844 1187.652344 170.476562 C 1189.792969 171.363281 1191.914062 172.300781 1194.007812 173.292969 C 1196.105469 174.28125 1198.175781 175.324219 1200.21875 176.417969 C 1202.265625 177.507812 1204.28125 178.648438 1206.273438 179.839844 C 1208.261719 181.03125 1210.21875 182.273438 1212.148438 183.558594 C 1214.074219 184.847656 1215.96875 186.179688 1217.832031 187.558594 C 1219.695312 188.941406 1221.523438 190.363281 1223.316406 191.835938 C 1225.109375 193.304688 1226.863281 194.816406 1228.582031 196.375 C 1230.300781 197.929688 1231.976562 199.527344 1233.617188 201.164062 C 1235.257812 202.804688 1236.855469 204.480469 1238.414062 206.195312 C 1239.96875 207.914062 1241.484375 209.667969 1242.957031 211.457031 C 1244.425781 213.25 1245.851562 215.074219 1247.234375 216.9375 C 1248.617188 218.796875 1249.949219 220.691406 1251.238281 222.617188 C 1252.527344 224.542969 1253.765625 226.5 1254.960938 228.488281 C 1256.152344 230.476562 1257.292969 232.492188 1258.386719 234.535156 C 1259.480469 236.578125 1260.523438 238.644531 1261.515625 240.742188 C 1262.503906 242.835938 1263.445312 244.953125 1264.332031 247.09375 C 1265.21875 249.234375 1266.054688 251.394531 1266.835938 253.574219 C 1267.617188 255.757812 1268.34375 257.957031 1269.015625 260.175781 C 1269.691406 262.390625 1270.308594 264.625 1270.871094 266.871094 C 1271.433594 269.117188 1271.941406 271.378906 1272.394531 273.652344 C 1272.847656 275.921875 1273.242188 278.203125 1273.582031 280.496094 C 1273.925781 282.789062 1274.207031 285.085938 1274.433594 287.394531 C 1274.664062 289.699219 1274.832031 292.007812 1274.945312 294.324219 C 1275.0625 296.636719 1275.117188 298.953125 1275.117188 301.269531 Z M 1275.117188 301.269531 " fill-opacity="1" fill-rule="nonzero"/></g><g clip-path="url(#07dd489ffd)"><path fill="#04182d" d="M 1244.753906 599.421875 L 1085.355469 599.421875 C 1082.648438 599.421875 1080.453125 597.226562 1080.453125 594.523438 L 1080.453125 503.585938 C 1080.453125 487.914062 1073.199219 473.164062 1060.554688 463.125 C 1015.191406 427.105469 991.78125 371.070312 997.9375 313.226562 C 1006.402344 233.71875 1073.109375 169.59375 1153.109375 164.066406 C 1200.289062 160.800781 1245.285156 176.683594 1279.714844 208.789062 C 1313.675781 240.453125 1333.152344 285.21875 1333.152344 331.605469 C 1333.152344 383.183594 1309.910156 431.167969 1269.386719 463.257812 C 1256.847656 473.1875 1249.65625 487.882812 1249.65625 503.578125 L 1249.65625 594.523438 C 1249.65625 597.226562 1247.460938 599.421875 1244.753906 599.421875 Z M 1090.257812 589.625 L 1239.851562 589.625 L 1239.851562 503.578125 C 1239.851562 484.875 1248.398438 467.378906 1263.296875 455.582031 C 1301.460938 425.359375 1323.347656 380.171875 1323.347656 331.605469 C 1323.347656 287.921875 1305.007812 245.769531 1273.027344 215.949219 C 1240.609375 185.722656 1198.300781 170.785156 1153.785156 173.835938 C 1078.460938 179.042969 1015.65625 239.414062 1007.6875 314.265625 C 1001.890625 368.753906 1023.933594 421.535156 1066.652344 455.457031 C 1081.65625 467.363281 1090.257812 484.90625 1090.257812 503.585938 Z M 1090.257812 589.625 " fill-opacity="1" fill-rule="nonzero"/></g><g clip-path="url(#ea2929d245)"><path fill="#04182d" d="M 1163.863281 627.542969 C 1129.054688 627.542969 1101.789062 613.039062 1101.789062 594.523438 C 1101.789062 591.816406 1103.984375 589.625 1106.691406 589.625 C 1109.398438 589.625 1111.59375 591.816406 1111.59375 594.523438 C 1111.59375 605.507812 1133.058594 617.746094 1163.863281 617.746094 C 1194.664062 617.746094 1216.132812 605.507812 1216.132812 594.523438 C 1216.132812 591.816406 1218.328125 589.625 1221.035156 589.625 C 1223.742188 589.625 1225.9375 591.816406 1225.9375 594.523438 C 1225.9375 613.039062 1198.671875 627.542969 1163.863281 627.542969 Z M 1163.863281 627.542969 " fill-opacity="1" fill-rule="nonzero"/></g><path fill="#04182d" d="M 1066.375 508.484375 C 1063.824219 508.484375 1061.671875 506.511719 1061.492188 503.925781 C 1061.304688 501.226562 1063.339844 498.886719 1066.042969 498.703125 L 1263.390625 485.039062 C 1266.171875 484.878906 1268.433594 486.890625 1268.621094 489.585938 C 1268.808594 492.285156 1266.773438 494.625 1264.070312 494.808594 L 1066.722656 508.472656 C 1066.605469 508.480469 1066.488281 508.484375 1066.375 508.484375 Z M 1066.375 508.484375 " fill-opacity="1" fill-rule="nonzero"/><path fill="#04182d" d="M 1066.375 539.8125 C 1063.824219 539.8125 1061.671875 537.839844 1061.492188 535.253906 C 1061.304688 532.554688 1063.339844 530.214844 1066.042969 530.03125 L 1263.390625 516.367188 C 1266.171875 516.226562 1268.433594 518.214844 1268.621094 520.914062 C 1268.808594 523.613281 1266.773438 525.953125 1264.070312 526.136719 L 1066.722656 539.800781 C 1066.605469 539.808594 1066.488281 539.8125 1066.375 539.8125 Z M 1066.375 539.8125 " fill-opacity="1" fill-rule="nonzero"/><path fill="#04182d" d="M 1066.375 571.144531 C 1063.824219 571.144531 1061.671875 569.167969 1061.492188 566.585938 C 1061.304688 563.886719 1063.339844 561.546875 1066.042969 561.359375 L 1263.390625 547.695312 C 1266.171875 547.515625 1268.433594 549.546875 1268.621094 552.242188 C 1268.808594 554.941406 1266.773438 557.28125 1264.070312 557.464844 L 1066.722656 571.132812 C 1066.605469 571.140625 1066.488281 571.144531 1066.375 571.144531 Z M 1066.375 571.144531 " fill-opacity="1" fill-rule="nonzero"/><path stroke-linecap="butt" transform="matrix(4.682712, 0, 0, 4.682712, 1019.81063, 483.205966)" fill="none" stroke-linejoin="miter" d="M 30.452338 42.981631 C 20.60895 42.981631 15.541274 49.252203 15.541274 58.80446 L 15.541274 134.671955 C 15.541274 143.932248 20.60895 150.494784 30.452338 150.494784 C 40.33243 150.494784 45.400106 143.932248 45.400106 134.671955 L 45.400106 58.80446 C 45.400106 49.252203 40.33243 42.981631 30.452338 42.981631 Z M 30.452338 42.981631 " stroke="#000000" stroke-width="2.706624" stroke-opacity="1" stroke-miterlimit="4"/><path stroke-linecap="butt" transform="matrix(4.682712, 0, 0, 4.682712, 522.187146, 482.862585)" fill="none" stroke-linejoin="miter" d="M 83.778985 95.553585 C 89.758426 90.923022 94.060321 83.449555 94.060321 74.04328 C 94.060321 54.027835 83.014037 44.476412 60.628672 44.476412 L 22.384607 44.476412 C 11.338324 44.476412 5.978683 51.33008 5.978683 61.793267 L 5.978683 131.68299 C 5.978683 142.146178 11.338324 148.999845 22.384607 148.999845 L 64.201488 148.999845 C 82.722072 148.999845 97.960972 140.651317 97.960972 119.724942 C 97.960972 107.620912 92.602164 99.417532 83.778985 95.553585 Z M 38.827236 123.625593 L 38.827236 109.589589 L 57.638951 109.589589 C 61.831567 109.589589 65.113252 111.667545 65.113252 116.443257 C 65.113252 121.218968 61.831567 123.625593 57.638951 123.625593 Z M 38.827236 83.886668 L 38.827236 69.850664 L 54.650065 69.850664 C 58.550716 69.850664 61.211767 72.840385 61.211767 77.033001 C 61.211767 81.188913 58.550716 83.886668 54.650065 83.886668 Z M 38.827236 83.886668 " stroke="#000000" stroke-width="2.706624" stroke-opacity="1" stroke-miterlimit="4"/><path stroke-linecap="butt" transform="matrix(4.682712, 0, 0, 4.682712, 1929.973539, 482.862585)" fill="none" stroke-linejoin="miter" d="M 56.727756 76.741036 C 51.222967 76.741036 46.155291 77.762079 41.524727 79.876739 L 42.399788 69.850664 L 71.675525 69.850664 C 79.148992 69.850664 84.216668 65.366084 84.216668 57.017556 C 84.216668 48.632324 79.148992 44.476412 71.675525 44.476412 L 25.374063 44.476412 C 17.9373 44.476412 11.957859 48.341193 11.046929 56.397756 L 7.765244 85.673493 C 7.765244 86.876389 7.474113 88.079284 7.474113 89.282179 C 7.474113 98.834437 14.32778 105.688104 23.880037 105.688104 C 27.780688 105.688104 30.150609 104.485209 33.468165 103.610148 C 36.421181 102.699218 39.738736 101.824157 44.806413 101.824157 C 55.2696 101.824157 59.134381 106.307904 59.134381 113.745501 C 59.134381 121.218968 52.86381 125.120453 46.301273 125.120453 C 35.838085 125.120453 28.363784 120.927837 22.385177 117.646152 C 20.598352 116.735222 18.520396 116.152126 16.44244 116.152126 C 8.968139 116.152126 3.572628 121.218968 3.572628 128.693269 C 3.572628 132.266086 5.067488 135.546937 7.474113 137.953562 C 14.94758 145.427029 30.150609 150.494705 47.796133 150.494705 C 75.248341 150.494705 91.982101 136.458701 91.982101 112.57931 C 91.982101 90.15724 80.643852 76.741036 56.727756 76.741036 Z M 56.727756 76.741036 " stroke="#000000" stroke-width="2.706624" stroke-opacity="1" stroke-miterlimit="4"/><path stroke-linecap="butt" transform="matrix(4.682712, 0, 0, 4.682712, 1318.437101, 483.205966)" fill="none" stroke-linejoin="miter" d="M 61.211777 42.981631 C 26.869197 42.981631 3.864866 63.871302 3.864866 96.719856 C 3.864866 128.109419 25.374337 150.494784 61.211777 150.494784 C 78.529466 150.494784 90.487514 146.010203 100.950702 137.953641 C 107.513238 132.885964 109.008099 128.693348 109.008099 119.725021 L 109.008099 100.620507 C 109.008099 91.069084 103.028658 83.886747 92.602174 83.886747 L 61.211777 83.886747 C 53.775014 83.886747 48.670633 89.866188 48.670633 96.719856 C 48.670633 103.610227 53.775014 109.589668 61.211777 109.589668 L 76.159545 109.589668 L 76.159545 120.489969 C 72.440747 123.479689 67.628331 125.120532 61.211777 125.120532 C 45.680913 125.120532 36.74929 114.073415 36.74929 96.719856 C 36.74929 79.403001 45.680913 68.355883 61.211777 68.355883 C 74.081589 68.355883 81.227222 73.751394 85.419838 75.538219 C 86.914698 76.121315 88.409558 76.741115 90.195549 76.741115 C 97.66985 76.741115 103.028658 72.256534 103.028658 63.871302 C 103.028658 58.80446 100.659571 55.231644 96.17499 52.241923 C 88.117593 46.846412 76.743475 42.981631 61.211777 42.981631 Z M 61.211777 42.981631 " stroke="#000000" stroke-width="2.706624" stroke-opacity="1" stroke-miterlimit="4"/></svg>