<svg xmlns="http://www.w3.org/2000/svg" xmlns:xlink="http://www.w3.org/1999/xlink" width="500" zoomAndPan="magnify" viewBox="0 0 375 374.999991" height="500" preserveAspectRatio="xMidYMid meet" version="1.0"><defs><g/><clipPath id="fc6874e82b"><path d="M 125.875 80.871094 L 166 80.871094 L 166 120 L 125.875 120 Z M 125.875 80.871094 " clip-rule="nonzero"/></clipPath><clipPath id="3f95d9a076"><path d="M 126 81 L 173.125 81 L 173.125 142 L 126 142 Z M 126 81 " clip-rule="nonzero"/></clipPath><clipPath id="629984c1dd"><path d="M 141 140 L 159 140 L 159 145.371094 L 141 145.371094 Z M 141 140 " clip-rule="nonzero"/></clipPath></defs><g fill="#5ce1e6" fill-opacity="1"><g transform="translate(54.972226, 231.050571)"><g><path d="M 11.574219 -58.703125 C 6.117188 -58.703125 3.308594 -55.230469 3.308594 -49.9375 L 3.308594 -7.9375 C 3.308594 -2.8125 6.117188 0.828125 11.574219 0.828125 C 17.03125 0.828125 19.84375 -2.8125 19.84375 -7.9375 L 19.84375 -49.9375 C 19.84375 -55.230469 17.03125 -58.703125 11.574219 -58.703125 Z M 11.574219 -58.703125 "/></g></g></g><g fill="#ff8bd2" fill-opacity="1"><g transform="translate(236.628144, 231.070643)"><g><path d="M -58.703125 -11.574219 C -58.703125 -6.117188 -55.230469 -3.308594 -49.9375 -3.308594 L -7.9375 -3.308594 C -2.8125 -3.308594 0.828125 -6.117188 0.828125 -11.574219 C 0.828125 -17.03125 -2.8125 -19.84375 -7.9375 -19.84375 L -49.9375 -19.84375 C -55.230469 -19.84375 -58.703125 -17.03125 -58.703125 -11.574219 Z M -58.703125 -11.574219 "/></g></g></g><g clip-path="url(#fc6874e82b)"><path fill="#ffbd59" d="M 165.054688 100.386719 C 165.054688 101.027344 165.023438 101.664062 164.960938 102.300781 C 164.898438 102.9375 164.804688 103.570312 164.679688 104.195312 C 164.554688 104.824219 164.398438 105.441406 164.210938 106.054688 C 164.027344 106.664062 163.8125 107.265625 163.566406 107.859375 C 163.320312 108.449219 163.046875 109.023438 162.746094 109.589844 C 162.441406 110.152344 162.113281 110.699219 161.757812 111.230469 C 161.402344 111.761719 161.019531 112.277344 160.613281 112.769531 C 160.207031 113.265625 159.777344 113.738281 159.324219 114.191406 C 158.871094 114.640625 158.398438 115.070312 157.902344 115.476562 C 157.40625 115.882812 156.894531 116.261719 156.359375 116.617188 C 155.828125 116.972656 155.277344 117.300781 154.714844 117.601562 C 154.148438 117.902344 153.570312 118.175781 152.976562 118.421875 C 152.386719 118.664062 151.785156 118.878906 151.171875 119.066406 C 150.558594 119.25 149.9375 119.40625 149.308594 119.53125 C 148.679688 119.65625 148.046875 119.75 147.410156 119.8125 C 146.773438 119.875 146.132812 119.90625 145.492188 119.90625 C 144.851562 119.90625 144.210938 119.875 143.574219 119.8125 C 142.9375 119.75 142.304688 119.65625 141.675781 119.53125 C 141.046875 119.40625 140.425781 119.25 139.8125 119.066406 C 139.199219 118.878906 138.597656 118.664062 138.003906 118.421875 C 137.414062 118.175781 136.835938 117.902344 136.269531 117.601562 C 135.703125 117.300781 135.15625 116.972656 134.625 116.617188 C 134.089844 116.261719 133.578125 115.882812 133.082031 115.476562 C 132.585938 115.070312 132.113281 114.640625 131.660156 114.191406 C 131.207031 113.738281 130.777344 113.265625 130.371094 112.769531 C 129.964844 112.277344 129.582031 111.761719 129.226562 111.230469 C 128.871094 110.699219 128.539062 110.152344 128.238281 109.589844 C 127.9375 109.023438 127.664062 108.449219 127.417969 107.859375 C 127.171875 107.265625 126.957031 106.664062 126.769531 106.054688 C 126.585938 105.441406 126.429688 104.824219 126.304688 104.195312 C 126.179688 103.570312 126.085938 102.9375 126.023438 102.300781 C 125.960938 101.664062 125.929688 101.027344 125.929688 100.386719 C 125.929688 99.75 125.960938 99.113281 126.023438 98.476562 C 126.085938 97.839844 126.179688 97.207031 126.304688 96.582031 C 126.429688 95.953125 126.585938 95.335938 126.769531 94.722656 C 126.957031 94.109375 127.171875 93.511719 127.417969 92.917969 C 127.664062 92.328125 127.9375 91.75 128.238281 91.1875 C 128.539062 90.625 128.871094 90.078125 129.226562 89.546875 C 129.582031 89.011719 129.964844 88.5 130.371094 88.007812 C 130.777344 87.511719 131.207031 87.039062 131.660156 86.585938 C 132.113281 86.136719 132.585938 85.707031 133.082031 85.300781 C 133.578125 84.894531 134.089844 84.515625 134.625 84.160156 C 135.15625 83.804688 135.703125 83.476562 136.269531 83.175781 C 136.835938 82.875 137.414062 82.601562 138.003906 82.355469 C 138.597656 82.113281 139.199219 81.898438 139.8125 81.710938 C 140.425781 81.527344 141.046875 81.371094 141.675781 81.246094 C 142.304688 81.121094 142.9375 81.027344 143.574219 80.964844 C 144.210938 80.902344 144.851562 80.871094 145.492188 80.871094 C 146.132812 80.871094 146.773438 80.902344 147.410156 80.964844 C 148.046875 81.027344 148.679688 81.121094 149.308594 81.246094 C 149.9375 81.371094 150.558594 81.527344 151.171875 81.710938 C 151.785156 81.898438 152.386719 82.113281 152.976562 82.355469 C 153.570312 82.601562 154.148438 82.875 154.714844 83.175781 C 155.277344 83.476562 155.828125 83.804688 156.359375 84.160156 C 156.894531 84.515625 157.40625 84.894531 157.902344 85.300781 C 158.398438 85.707031 158.871094 86.136719 159.324219 86.585938 C 159.777344 87.039062 160.207031 87.511719 160.613281 88.007812 C 161.019531 88.5 161.402344 89.011719 161.757812 89.546875 C 162.113281 90.078125 162.441406 90.625 162.746094 91.1875 C 163.046875 91.75 163.320312 92.328125 163.566406 92.917969 C 163.8125 93.511719 164.027344 94.109375 164.210938 94.722656 C 164.398438 95.335938 164.554688 95.953125 164.679688 96.582031 C 164.804688 97.207031 164.898438 97.839844 164.960938 98.476562 C 165.023438 99.113281 165.054688 99.75 165.054688 100.386719 Z M 165.054688 100.386719 " fill-opacity="1" fill-rule="nonzero"/></g><g clip-path="url(#3f95d9a076)"><path fill="#04182d" d="M 160.863281 141.492188 L 138.855469 141.492188 C 138.480469 141.492188 138.175781 141.191406 138.175781 140.816406 L 138.175781 128.28125 C 138.175781 126.121094 137.175781 124.085938 135.429688 122.703125 C 129.167969 117.738281 125.933594 110.011719 126.785156 102.035156 C 127.953125 91.074219 137.164062 82.234375 148.210938 81.472656 C 154.722656 81.023438 160.9375 83.210938 165.691406 87.636719 C 170.378906 92.003906 173.066406 98.175781 173.066406 104.570312 C 173.066406 111.683594 169.859375 118.296875 164.261719 122.722656 C 162.53125 124.089844 161.539062 126.117188 161.539062 128.28125 L 161.539062 140.816406 C 161.539062 141.191406 161.234375 141.492188 160.863281 141.492188 Z M 139.53125 140.144531 L 160.1875 140.144531 L 160.1875 128.28125 C 160.1875 125.703125 161.367188 123.289062 163.421875 121.664062 C 168.691406 117.496094 171.714844 111.265625 171.714844 104.570312 C 171.714844 98.546875 169.179688 92.738281 164.765625 88.625 C 160.289062 84.457031 154.449219 82.398438 148.300781 82.820312 C 137.902344 83.539062 129.230469 91.859375 128.132812 102.179688 C 127.332031 109.691406 130.375 116.96875 136.273438 121.644531 C 138.34375 123.289062 139.53125 125.707031 139.53125 128.28125 Z M 139.53125 140.144531 " fill-opacity="1" fill-rule="nonzero"/></g><g clip-path="url(#629984c1dd)"><path fill="#04182d" d="M 149.695312 145.371094 C 144.886719 145.371094 141.125 143.371094 141.125 140.816406 C 141.125 140.445312 141.425781 140.144531 141.800781 140.144531 C 142.171875 140.144531 142.476562 140.445312 142.476562 140.816406 C 142.476562 142.332031 145.441406 144.019531 149.695312 144.019531 C 153.945312 144.019531 156.910156 142.332031 156.910156 140.816406 C 156.910156 140.445312 157.214844 140.144531 157.585938 140.144531 C 157.960938 140.144531 158.265625 140.445312 158.265625 140.816406 C 158.265625 143.371094 154.5 145.371094 149.695312 145.371094 Z M 149.695312 145.371094 " fill-opacity="1" fill-rule="nonzero"/></g><path fill="#04182d" d="M 136.234375 128.957031 C 135.882812 128.957031 135.585938 128.683594 135.558594 128.328125 C 135.535156 127.957031 135.816406 127.632812 136.1875 127.609375 L 163.4375 125.722656 C 163.820312 125.703125 164.132812 125.980469 164.15625 126.351562 C 164.183594 126.722656 163.902344 127.046875 163.53125 127.070312 L 136.28125 128.953125 C 136.265625 128.957031 136.25 128.957031 136.234375 128.957031 Z M 136.234375 128.957031 " fill-opacity="1" fill-rule="nonzero"/><path fill="#04182d" d="M 136.234375 133.277344 C 135.882812 133.277344 135.585938 133.003906 135.558594 132.648438 C 135.535156 132.273438 135.816406 131.953125 136.1875 131.925781 L 163.4375 130.042969 C 163.820312 130.023438 164.132812 130.296875 164.15625 130.671875 C 164.183594 131.042969 163.902344 131.363281 163.53125 131.390625 L 136.28125 133.273438 C 136.265625 133.273438 136.25 133.277344 136.234375 133.277344 Z M 136.234375 133.277344 " fill-opacity="1" fill-rule="nonzero"/><path fill="#04182d" d="M 136.234375 137.59375 C 135.882812 137.59375 135.585938 137.324219 135.558594 136.964844 C 135.535156 136.59375 135.816406 136.273438 136.1875 136.246094 L 163.4375 134.363281 C 163.820312 134.335938 164.132812 134.617188 164.15625 134.988281 C 164.183594 135.359375 163.902344 135.683594 163.53125 135.710938 L 136.28125 137.59375 C 136.265625 137.59375 136.25 137.59375 136.234375 137.59375 Z M 136.234375 137.59375 " fill-opacity="1" fill-rule="nonzero"/><path stroke-linecap="butt" transform="matrix(0.643193, 0, 0, 0.643193, 129.784933, 125.305919)" fill="none" stroke-linejoin="miter" d="M 30.451434 42.984283 C 20.606757 42.984283 15.541698 49.251838 15.541698 58.805001 L 15.541698 134.67157 C 15.541698 143.933218 20.606757 150.492288 30.451434 150.492288 C 40.332551 150.492288 45.39761 143.933218 45.39761 134.67157 L 45.39761 58.805001 C 45.39761 49.251838 40.332551 42.984283 30.451434 42.984283 Z M 30.451434 42.984283 " stroke="#000000" stroke-width="2.706624" stroke-opacity="1" stroke-miterlimit="4"/><path stroke-linecap="butt" transform="matrix(0.643193, 0, 0, 0.643193, 61.433919, 125.258752)" fill="none" stroke-linejoin="miter" d="M 83.779459 95.554463 C 89.7555 90.920602 94.061408 83.450551 94.061408 74.043145 C 94.061408 54.025837 83.014234 44.478747 60.628374 44.478747 L 22.385355 44.478747 C 11.338182 44.478747 5.981609 51.329331 5.981609 61.793475 L 5.981609 131.684003 C 5.981609 142.148148 11.338182 148.998732 22.385355 148.998732 L 64.199422 148.998732 C 82.72272 148.998732 97.96041 140.654138 97.96041 119.725848 C 97.96041 107.621936 92.603837 99.417026 83.779459 95.554463 Z M 38.825541 123.624851 L 38.825541 109.589657 L 57.640353 109.589657 C 61.83087 109.589657 65.110404 111.666695 65.110404 116.446314 C 65.110404 121.219858 61.83087 123.624851 57.640353 123.624851 Z M 38.825541 83.887822 L 38.825541 69.852628 L 54.652333 69.852628 C 58.551335 69.852628 61.211402 72.840649 61.211402 77.031165 C 61.211402 81.191316 58.551335 83.887822 54.652333 83.887822 Z M 38.825541 83.887822 " stroke="#000000" stroke-width="2.706624" stroke-opacity="1" stroke-miterlimit="4"/><path stroke-linecap="butt" transform="matrix(0.643193, 0, 0, 0.643193, 254.800272, 125.258752)" fill="none" stroke-linejoin="miter" d="M 56.730669 76.739651 C 51.222265 76.739651 46.157206 77.759951 41.523345 79.879502 L 42.397888 69.852628 L 71.676844 69.852628 C 79.146896 69.852628 84.218028 65.364524 84.218028 57.019931 C 84.218028 48.632824 79.146896 44.478747 71.676844 44.478747 L 25.374673 44.478747 C 17.934988 44.478747 11.958947 48.34131 11.047965 56.400463 L 7.768431 85.673347 C 7.768431 86.875843 7.470843 88.078339 7.470843 89.280835 C 7.470843 98.833998 14.3275 105.690654 23.880663 105.690654 C 27.779665 105.690654 30.148218 104.488158 33.470265 103.607543 C 36.421847 102.696561 39.737821 101.822018 44.808953 101.822018 C 55.267025 101.822018 59.135661 106.310122 59.135661 113.743734 C 59.135661 121.219858 52.862033 125.118861 46.302963 125.118861 C 35.838818 125.118861 28.362694 120.928344 22.386653 117.64881 C 20.601128 116.737828 18.518017 116.154799 16.440978 116.154799 C 8.970927 116.154799 3.571841 121.219858 3.571841 128.695983 C 3.571841 132.267032 5.065851 135.546566 7.470843 137.951559 C 14.946968 145.427683 30.148218 150.492742 47.796973 150.492742 C 75.247893 150.492742 91.979593 136.457548 91.979593 112.577677 C 91.979593 90.155377 80.646979 76.739651 56.730669 76.739651 Z M 56.730669 76.739651 " stroke="#000000" stroke-width="2.706624" stroke-opacity="1" stroke-miterlimit="4"/><path stroke-linecap="butt" transform="matrix(0.643193, 0, 0, 0.643193, 170.802737, 125.305919)" fill="none" stroke-linejoin="miter" d="M 61.21494 42.984283 C 26.870924 42.984283 3.865595 63.87006 3.865595 96.720066 C 3.865595 128.1125 25.376913 150.492288 61.21494 150.492288 C 78.529668 150.492288 90.487823 146.010257 100.951968 137.951104 C 107.511037 132.886045 109.005048 128.695529 109.005048 119.725394 L 109.005048 100.619068 C 109.005048 91.071978 103.029007 83.887368 92.601301 83.887368 L 61.21494 83.887368 C 53.775254 83.887368 48.673756 89.863409 48.673756 96.720066 C 48.673756 103.613162 53.775254 109.589203 61.21494 109.589203 L 76.161115 109.589203 L 76.161115 120.490619 C 72.438236 123.478639 67.628252 125.118407 61.21494 125.118407 C 45.679662 125.118407 36.75204 114.071233 36.75204 96.720066 C 36.75204 79.405337 45.679662 68.358164 61.21494 68.358164 C 74.084077 68.358164 81.226174 73.751176 85.422764 75.536701 C 86.916774 76.119729 88.410784 76.739197 90.196309 76.739197 C 97.672433 76.739197 103.029007 72.257166 103.029007 63.87006 C 103.029007 58.805001 100.660454 55.233952 96.17235 52.239858 C 88.11927 46.846846 76.744144 42.984283 61.21494 42.984283 Z M 61.21494 42.984283 " stroke="#000000" stroke-width="2.706624" stroke-opacity="1" stroke-miterlimit="4"/><g fill="#000000" fill-opacity="1"><g transform="translate(160.14268, 282.485462)"><g><path d="M 7.859375 -14.234375 C 3.628906 -14.234375 0.800781 -11.46875 0.800781 -7.015625 C 0.800781 -2.566406 3.628906 0.199219 7.859375 0.199219 C 9.824219 0.199219 11.367188 -0.460938 12.351562 -1.261719 C 12.671875 -1.523438 12.851562 -1.882812 12.851562 -2.304688 C 12.851562 -3.109375 12.371094 -3.589844 11.527344 -3.589844 C 11.265625 -3.589844 11.105469 -3.527344 10.886719 -3.386719 C 10.003906 -2.746094 9.082031 -2.386719 7.859375 -2.386719 C 5.332031 -2.386719 3.710938 -4.089844 3.710938 -7.015625 C 3.710938 -9.945312 5.332031 -11.648438 7.859375 -11.648438 C 9.082031 -11.648438 10.003906 -11.289062 10.886719 -10.644531 C 11.105469 -10.503906 11.265625 -10.445312 11.527344 -10.445312 C 12.371094 -10.445312 12.851562 -10.925781 12.851562 -11.726562 C 12.851562 -12.148438 12.671875 -12.511719 12.351562 -12.769531 C 11.367188 -13.574219 9.824219 -14.234375 7.859375 -14.234375 Z M 7.859375 -14.234375 "/></g></g></g><g fill="#000000" fill-opacity="1"><g transform="translate(173.815826, 282.485462)"><g><path d="M 6.816406 -14.234375 C 6.796875 -14.234375 6.777344 -14.234375 6.777344 -14.234375 C 6.214844 -14.234375 5.695312 -13.894531 5.453125 -13.390625 L 0.5 -1.882812 C 0.402344 -1.664062 0.359375 -1.464844 0.359375 -1.242188 C 0.359375 -0.441406 1.003906 0.199219 1.804688 0.199219 C 2.40625 0.199219 2.90625 -0.0585938 3.128906 -0.640625 L 4.128906 -3.367188 L 9.421875 -3.367188 L 10.425781 -0.640625 C 10.644531 -0.0585938 11.148438 0.199219 11.75 0.199219 C 12.550781 0.199219 13.210938 -0.441406 13.210938 -1.242188 C 13.210938 -1.464844 13.152344 -1.664062 13.050781 -1.882812 L 8.101562 -13.390625 C 7.859375 -13.894531 7.378906 -14.214844 6.816406 -14.234375 Z M 8.601562 -5.632812 L 4.972656 -5.632812 L 6.796875 -10.585938 Z M 8.601562 -5.632812 "/></g></g></g><g fill="#000000" fill-opacity="1"><g transform="translate(187.328581, 282.485462)"><g><path d="M 3.628906 -14.035156 L 2.667969 -14.035156 C 1.703125 -14.035156 1.222656 -13.433594 1.222656 -12.511719 L 1.222656 -1.523438 C 1.222656 -0.601562 1.703125 0 2.667969 0 L 8.058594 0 C 12.050781 0 14.175781 -3.410156 14.175781 -7.015625 C 14.175781 -10.625 12.007812 -14.035156 8.058594 -14.035156 Z M 4.128906 -2.605469 L 4.128906 -11.429688 L 7.4375 -11.429688 C 9.765625 -11.429688 11.265625 -9.542969 11.265625 -7.015625 C 11.265625 -4.492188 9.824219 -2.605469 7.4375 -2.605469 Z M 4.128906 -2.605469 "/></g></g></g><g fill="#000000" fill-opacity="1"><g transform="translate(202.324939, 282.485462)"><g><path d="M 2.6875 -14.035156 C 1.722656 -14.035156 1.222656 -13.433594 1.222656 -12.511719 L 1.222656 -1.523438 C 1.222656 -0.601562 1.722656 0 2.6875 0 L 9.863281 0 C 10.503906 0 11.066406 -0.5625 11.066406 -1.203125 C 11.066406 -1.84375 10.503906 -2.40625 9.863281 -2.40625 L 4.128906 -2.40625 L 4.128906 -5.8125 L 7.859375 -5.8125 C 8.5 -5.8125 9.0625 -6.375 9.0625 -7.015625 C 9.0625 -7.660156 8.5 -8.21875 7.859375 -8.21875 L 4.128906 -8.21875 L 4.128906 -11.628906 L 9.863281 -11.628906 C 10.503906 -11.628906 11.066406 -12.191406 11.066406 -12.832031 C 11.066406 -13.472656 10.503906 -14.035156 9.863281 -14.035156 Z M 2.6875 -14.035156 "/></g></g></g><g fill="#000000" fill-opacity="1"><g transform="translate(213.993223, 282.485462)"><g><path d="M 3.847656 -14.234375 C 3.128906 -14.234375 2.484375 -13.691406 2.40625 -12.972656 L 0.84375 -1.402344 L 0.84375 -1.203125 C 0.84375 -0.382812 1.421875 0.199219 2.246094 0.199219 C 3.007812 0.199219 3.628906 -0.339844 3.6875 -1.101562 L 4.773438 -8.761719 L 7.238281 -2.566406 C 7.4375 -2.085938 7.839844 -1.804688 8.460938 -1.804688 C 9.042969 -1.804688 9.503906 -2.046875 9.703125 -2.566406 L 12.148438 -8.761719 L 13.230469 -1.101562 C 13.292969 -0.339844 13.914062 0.199219 14.675781 0.199219 C 15.496094 0.199219 16.078125 -0.421875 16.078125 -1.242188 L 16.078125 -1.402344 L 14.535156 -12.972656 C 14.457031 -13.691406 13.792969 -14.234375 13.070312 -14.234375 C 12.550781 -14.234375 12.070312 -13.992188 11.867188 -13.511719 L 8.480469 -5.652344 L 5.050781 -13.511719 C 4.851562 -13.953125 4.390625 -14.234375 3.847656 -14.234375 Z M 3.847656 -14.234375 "/></g></g></g><g fill="#000000" fill-opacity="1"><g transform="translate(230.874152, 282.485462)"><g><path d="M 1.765625 -14.234375 C 1.003906 -14.234375 0.359375 -13.59375 0.359375 -12.851562 C 0.359375 -12.609375 0.421875 -12.410156 0.542969 -12.191406 L 4.832031 -4.25 L 4.832031 -1.324219 C 4.832031 -0.402344 5.3125 0.199219 6.273438 0.199219 C 7.238281 0.199219 7.738281 -0.402344 7.738281 -1.324219 L 7.738281 -4.25 L 12.007812 -12.191406 C 12.128906 -12.410156 12.210938 -12.628906 12.210938 -12.871094 C 12.210938 -13.613281 11.566406 -14.234375 10.804688 -14.234375 C 10.226562 -14.234375 9.804688 -13.972656 9.582031 -13.511719 L 6.273438 -6.65625 L 2.988281 -13.511719 C 2.765625 -13.972656 2.34375 -14.234375 1.765625 -14.234375 Z M 1.765625 -14.234375 "/></g></g></g><g fill="#ffbd59" fill-opacity="1"><g transform="translate(148.894029, 273.01866)"><g><path d="M -5.8125 -23.492188 C -7.8125 -22.558594 -8.246094 -20.804688 -7.339844 -18.863281 L -0.148438 -3.476562 C 0.730469 -1.597656 2.382812 -0.746094 4.382812 -1.679688 C 6.382812 -2.613281 6.789062 -4.429688 5.910156 -6.304688 L -1.28125 -21.695312 C -2.1875 -23.636719 -3.8125 -24.425781 -5.8125 -23.492188 Z M -5.8125 -23.492188 "/></g></g></g><path stroke-linecap="butt" transform="matrix(0.260146, 0, 0, 0.260146, 128.760099, 243.643388)" fill="none" stroke-linejoin="miter" d="M 53.446707 42.97901 C 53.16141 42.97901 53.011255 42.97901 52.710943 42.97901 C 46.449442 42.97901 40.758534 46.702876 38.250931 52.528925 L 3.279624 126.901137 C 2.078377 129.2736 1.492769 131.676095 1.492769 134.048558 C 1.492769 143.02788 8.970532 150.490628 17.934839 150.490628 C 24.796963 150.490628 30.472855 147.502525 32.845319 140.940713 L 36.899528 129.603943 L 69.303169 129.603943 L 73.177191 140.940713 C 75.579685 147.502525 81.225546 150.490628 88.117702 150.490628 C 97.051977 150.490628 104.52974 143.02788 104.52974 134.048558 C 104.52974 131.676095 103.944132 129.2736 102.742885 126.901137 L 67.816625 52.528925 C 65.113819 46.853032 59.723223 43.279322 53.446707 42.97901 Z M 60.489018 104.197567 L 45.683647 104.197567 L 53.16141 83.010571 Z M 60.489018 104.197567 " stroke="#000000" stroke-width="2.706624" stroke-opacity="1" stroke-miterlimit="4"/></svg>