<svg xmlns="http://www.w3.org/2000/svg" xmlns:xlink="http://www.w3.org/1999/xlink" width="3840" zoomAndPan="magnify" viewBox="0 0 2880 1597.499947" height="2130" preserveAspectRatio="xMidYMid meet" version="1.0"><defs><g/><clipPath id="685ae8c8f2"><path d="M 879.179688 43.164062 L 1235 43.164062 L 1235 398 L 879.179688 398 Z M 879.179688 43.164062 " clip-rule="nonzero"/></clipPath><clipPath id="320f41badb"><path d="M 1017 581 L 1173 581 L 1173 628.730469 L 1017 628.730469 Z M 1017 581 " clip-rule="nonzero"/></clipPath></defs><g fill="#5ce1e6" fill-opacity="1"><g transform="translate(233.929196, 1409.876105)"><g><path d="M 105.339844 -534.226562 C 55.679688 -534.226562 30.097656 -502.625 30.097656 -454.46875 L 30.097656 -72.234375 C 30.097656 -25.582031 55.679688 7.523438 105.339844 7.523438 C 155 7.523438 180.585938 -25.582031 180.585938 -72.234375 L 180.585938 -454.46875 C 180.585938 -502.625 155 -534.226562 105.339844 -534.226562 Z M 105.339844 -534.226562 "/></g></g></g><g fill="#ff8bd2" fill-opacity="1"><g transform="translate(1887.102622, 1410.147361)"><g><path d="M -534.226562 -105.339844 C -534.226562 -55.679688 -502.625 -30.097656 -454.46875 -30.097656 L -72.234375 -30.097656 C -25.582031 -30.097656 7.523438 -55.679688 7.523438 -105.339844 C 7.523438 -155 -25.582031 -180.585938 -72.234375 -180.585938 L -454.46875 -180.585938 C -502.625 -180.585938 -534.226562 -155 -534.226562 -105.339844 Z M -534.226562 -105.339844 "/></g></g></g><g clip-path="url(#685ae8c8f2)"><path fill="#ffbd59" d="M 1234.167969 220.355469 C 1234.167969 223.253906 1234.09375 226.152344 1233.953125 229.050781 C 1233.808594 231.945312 1233.597656 234.835938 1233.3125 237.722656 C 1233.027344 240.609375 1232.671875 243.488281 1232.246094 246.355469 C 1231.820312 249.222656 1231.328125 252.078125 1230.761719 254.925781 C 1230.195312 257.769531 1229.558594 260.597656 1228.855469 263.410156 C 1228.148438 266.222656 1227.375 269.015625 1226.535156 271.792969 C 1225.691406 274.566406 1224.78125 277.320312 1223.804688 280.050781 C 1222.828125 282.78125 1221.785156 285.484375 1220.675781 288.164062 C 1219.5625 290.84375 1218.390625 293.492188 1217.148438 296.113281 C 1215.910156 298.734375 1214.605469 301.324219 1213.238281 303.882812 C 1211.871094 306.441406 1210.441406 308.964844 1208.949219 311.449219 C 1207.457031 313.9375 1205.90625 316.386719 1204.296875 318.796875 C 1202.683594 321.210938 1201.015625 323.578125 1199.285156 325.910156 C 1197.558594 328.238281 1195.773438 330.523438 1193.933594 332.765625 C 1192.09375 335.007812 1190.199219 337.203125 1188.25 339.351562 C 1186.304688 341.5 1184.304688 343.597656 1182.253906 345.648438 C 1180.203125 347.699219 1178.101562 349.699219 1175.953125 351.644531 C 1173.804688 353.59375 1171.605469 355.488281 1169.363281 357.328125 C 1167.121094 359.167969 1164.835938 360.949219 1162.507812 362.675781 C 1160.175781 364.40625 1157.804688 366.074219 1155.394531 367.683594 C 1152.980469 369.296875 1150.53125 370.847656 1148.042969 372.339844 C 1145.554688 373.828125 1143.03125 375.257812 1140.476562 376.625 C 1137.917969 377.992188 1135.328125 379.296875 1132.703125 380.535156 C 1130.082031 381.773438 1127.429688 382.949219 1124.75 384.058594 C 1122.070312 385.167969 1119.367188 386.210938 1116.632812 387.191406 C 1113.902344 388.167969 1111.148438 389.074219 1108.375 389.917969 C 1105.597656 390.757812 1102.804688 391.53125 1099.988281 392.238281 C 1097.175781 392.941406 1094.347656 393.578125 1091.5 394.144531 C 1088.65625 394.707031 1085.800781 395.203125 1082.929688 395.628906 C 1080.0625 396.054688 1077.183594 396.410156 1074.296875 396.695312 C 1071.410156 396.980469 1068.515625 397.191406 1065.621094 397.335938 C 1062.722656 397.476562 1059.824219 397.546875 1056.921875 397.546875 C 1054.023438 397.546875 1051.125 397.476562 1048.226562 397.335938 C 1045.328125 397.191406 1042.4375 396.980469 1039.550781 396.695312 C 1036.664062 396.410156 1033.785156 396.054688 1030.917969 395.628906 C 1028.046875 395.203125 1025.191406 394.707031 1022.34375 394.144531 C 1019.5 393.578125 1016.671875 392.941406 1013.855469 392.238281 C 1011.042969 391.53125 1008.25 390.761719 1005.472656 389.917969 C 1002.695312 389.078125 999.941406 388.167969 997.210938 387.191406 C 994.480469 386.214844 991.773438 385.167969 989.09375 384.058594 C 986.414062 382.949219 983.765625 381.773438 981.140625 380.535156 C 978.519531 379.296875 975.929688 377.992188 973.371094 376.625 C 970.8125 375.257812 968.289062 373.828125 965.800781 372.339844 C 963.3125 370.847656 960.863281 369.296875 958.453125 367.683594 C 956.039062 366.074219 953.667969 364.40625 951.339844 362.675781 C 949.011719 360.949219 946.722656 359.167969 944.480469 357.328125 C 942.238281 355.488281 940.042969 353.59375 937.894531 351.644531 C 935.746094 349.699219 933.644531 347.699219 931.59375 345.648438 C 929.542969 343.597656 927.542969 341.5 925.59375 339.351562 C 923.648438 337.203125 921.753906 335.007812 919.914062 332.765625 C 918.074219 330.523438 916.289062 328.238281 914.558594 325.910156 C 912.832031 323.578125 911.164062 321.210938 909.550781 318.796875 C 907.941406 316.386719 906.386719 313.9375 904.898438 311.449219 C 903.40625 308.964844 901.976562 306.441406 900.609375 303.882812 C 899.242188 301.324219 897.9375 298.734375 896.699219 296.113281 C 895.457031 293.492188 894.28125 290.84375 893.171875 288.164062 C 892.0625 285.484375 891.019531 282.78125 890.042969 280.050781 C 889.0625 277.320312 888.15625 274.566406 887.3125 271.792969 C 886.46875 269.015625 885.695312 266.222656 884.992188 263.410156 C 884.289062 260.597656 883.652344 257.769531 883.085938 254.925781 C 882.519531 252.078125 882.023438 249.222656 881.597656 246.355469 C 881.171875 243.488281 880.816406 240.609375 880.535156 237.722656 C 880.25 234.835938 880.035156 231.945312 879.894531 229.050781 C 879.75 226.152344 879.679688 223.253906 879.679688 220.355469 C 879.679688 217.457031 879.75 214.558594 879.894531 211.660156 C 880.035156 208.765625 880.25 205.875 880.535156 202.988281 C 880.816406 200.101562 881.171875 197.222656 881.597656 194.355469 C 882.023438 191.488281 882.519531 188.632812 883.085938 185.785156 C 883.652344 182.941406 884.289062 180.113281 884.992188 177.300781 C 885.695312 174.488281 886.46875 171.695312 887.3125 168.917969 C 888.15625 166.144531 889.0625 163.390625 890.042969 160.660156 C 891.019531 157.929688 892.0625 155.226562 893.171875 152.546875 C 894.28125 149.867188 895.457031 147.21875 896.699219 144.597656 C 897.9375 141.972656 899.242188 139.386719 900.609375 136.828125 C 901.976562 134.269531 903.40625 131.746094 904.898438 129.261719 C 906.386719 126.773438 907.941406 124.324219 909.550781 121.914062 C 911.164062 119.5 912.832031 117.132812 914.558594 114.800781 C 916.289062 112.472656 918.074219 110.1875 919.914062 107.945312 C 921.753906 105.703125 923.648438 103.507812 925.59375 101.359375 C 927.542969 99.210938 929.542969 97.113281 931.59375 95.0625 C 933.644531 93.011719 935.746094 91.011719 937.894531 89.0625 C 940.042969 87.117188 942.238281 85.222656 944.480469 83.382812 C 946.722656 81.542969 949.011719 79.761719 951.339844 78.03125 C 953.667969 76.304688 956.039062 74.636719 958.453125 73.023438 C 960.863281 71.414062 963.3125 69.863281 965.800781 68.371094 C 968.289062 66.882812 970.8125 65.453125 973.371094 64.085938 C 975.929688 62.71875 978.519531 61.414062 981.140625 60.175781 C 983.765625 58.933594 986.414062 57.761719 989.09375 56.652344 C 991.773438 55.542969 994.480469 54.496094 997.210938 53.519531 C 999.941406 52.542969 1002.695312 51.632812 1005.472656 50.792969 C 1008.25 49.949219 1011.042969 49.175781 1013.855469 48.472656 C 1016.671875 47.769531 1019.5 47.132812 1022.34375 46.566406 C 1025.191406 46 1028.046875 45.507812 1030.917969 45.082031 C 1033.785156 44.65625 1036.664062 44.300781 1039.550781 44.015625 C 1042.4375 43.730469 1045.328125 43.519531 1048.226562 43.375 C 1051.125 43.234375 1054.023438 43.164062 1056.921875 43.164062 C 1059.824219 43.164062 1062.722656 43.234375 1065.621094 43.375 C 1068.515625 43.519531 1071.410156 43.730469 1074.296875 44.015625 C 1077.183594 44.300781 1080.0625 44.65625 1082.929688 45.082031 C 1085.800781 45.507812 1088.65625 46 1091.5 46.566406 C 1094.347656 47.132812 1097.175781 47.769531 1099.988281 48.472656 C 1102.804688 49.175781 1105.597656 49.949219 1108.375 50.792969 C 1111.148438 51.632812 1113.902344 52.542969 1116.632812 53.519531 C 1119.367188 54.496094 1122.070312 55.542969 1124.75 56.652344 C 1127.429688 57.761719 1130.082031 58.933594 1132.703125 60.175781 C 1135.328125 61.414062 1137.917969 62.71875 1140.476562 64.085938 C 1143.03125 65.453125 1145.554688 66.882812 1148.042969 68.371094 C 1150.53125 69.863281 1152.980469 71.414062 1155.394531 73.023438 C 1157.804688 74.636719 1160.175781 76.304688 1162.507812 78.03125 C 1164.835938 79.761719 1167.121094 81.542969 1169.363281 83.382812 C 1171.605469 85.222656 1173.804688 87.117188 1175.953125 89.0625 C 1178.101562 91.011719 1180.203125 93.011719 1182.253906 95.0625 C 1184.304688 97.113281 1186.304688 99.210938 1188.25 101.359375 C 1190.199219 103.507812 1192.09375 105.703125 1193.933594 107.945312 C 1195.773438 110.1875 1197.558594 112.472656 1199.285156 114.800781 C 1201.015625 117.132812 1202.683594 119.5 1204.296875 121.914062 C 1205.90625 124.324219 1207.457031 126.773438 1208.949219 129.261719 C 1210.441406 131.746094 1211.871094 134.269531 1213.238281 136.828125 C 1214.605469 139.386719 1215.910156 141.972656 1217.148438 144.597656 C 1218.390625 147.21875 1219.5625 149.867188 1220.675781 152.546875 C 1221.785156 155.226562 1222.828125 157.929688 1223.804688 160.660156 C 1224.78125 163.390625 1225.691406 166.144531 1226.535156 168.917969 C 1227.375 171.695312 1228.148438 174.488281 1228.855469 177.300781 C 1229.558594 180.113281 1230.195312 182.941406 1230.761719 185.785156 C 1231.328125 188.632812 1231.820312 191.488281 1232.246094 194.355469 C 1232.671875 197.222656 1233.027344 200.101562 1233.3125 202.988281 C 1233.597656 205.875 1233.808594 208.765625 1233.953125 211.660156 C 1234.09375 214.558594 1234.167969 217.457031 1234.167969 220.355469 Z M 1234.167969 220.355469 " fill-opacity="1" fill-rule="nonzero"/></g><path fill="#04182d" d="M 1196.183594 593.53125 L 996.785156 593.53125 C 993.398438 593.53125 990.652344 590.785156 990.652344 587.398438 L 990.652344 473.582031 C 990.652344 453.964844 981.582031 435.503906 965.761719 422.9375 C 909.015625 377.855469 879.730469 307.71875 887.433594 235.320312 C 898.019531 135.808594 981.46875 55.546875 1081.542969 48.625 C 1140.558594 44.539062 1196.847656 64.417969 1239.917969 104.605469 C 1282.398438 144.234375 1306.761719 200.265625 1306.761719 258.324219 C 1306.761719 322.882812 1277.6875 382.941406 1227 423.105469 C 1211.3125 435.535156 1202.316406 453.929688 1202.316406 473.570312 L 1202.316406 587.398438 C 1202.316406 590.785156 1199.570312 593.53125 1196.183594 593.53125 Z M 1002.917969 581.269531 L 1190.050781 581.269531 L 1190.050781 473.570312 C 1190.050781 450.164062 1200.742188 428.265625 1219.382812 413.496094 C 1267.121094 375.671875 1294.5 319.113281 1294.5 258.324219 C 1294.5 203.648438 1271.558594 150.886719 1231.550781 113.566406 C 1191 75.734375 1138.070312 57.039062 1082.386719 60.859375 C 988.164062 67.375 909.597656 142.933594 899.632812 236.621094 C 892.375 304.820312 919.949219 370.882812 973.390625 413.339844 C 992.15625 428.246094 1002.917969 450.203125 1002.917969 473.582031 Z M 1002.917969 581.269531 " fill-opacity="1" fill-rule="nonzero"/><g clip-path="url(#320f41badb)"><path fill="#04182d" d="M 1094.992188 628.730469 C 1051.449219 628.730469 1017.34375 610.574219 1017.34375 587.398438 C 1017.34375 584.015625 1020.089844 581.269531 1023.472656 581.269531 C 1026.859375 581.269531 1029.605469 584.015625 1029.605469 587.398438 C 1029.605469 601.148438 1056.460938 616.46875 1094.992188 616.46875 C 1133.527344 616.46875 1160.382812 601.148438 1160.382812 587.398438 C 1160.382812 584.015625 1163.128906 581.269531 1166.515625 581.269531 C 1169.902344 581.269531 1172.648438 584.015625 1172.648438 587.398438 C 1172.648438 610.574219 1138.535156 628.730469 1094.992188 628.730469 Z M 1094.992188 628.730469 " fill-opacity="1" fill-rule="nonzero"/></g><path fill="#04182d" d="M 973.042969 479.714844 C 969.851562 479.714844 967.15625 477.242188 966.933594 474.007812 C 966.699219 470.628906 969.246094 467.699219 972.625 467.46875 L 1219.5 450.367188 C 1222.972656 450.164062 1225.808594 452.683594 1226.039062 456.054688 C 1226.273438 459.4375 1223.726562 462.363281 1220.347656 462.597656 L 973.476562 479.699219 C 973.328125 479.707031 973.183594 479.714844 973.042969 479.714844 Z M 973.042969 479.714844 " fill-opacity="1" fill-rule="nonzero"/><path fill="#04182d" d="M 973.042969 518.925781 C 969.851562 518.925781 967.15625 516.453125 966.933594 513.21875 C 966.699219 509.839844 969.246094 506.910156 972.625 506.679688 L 1219.5 489.578125 C 1222.972656 489.398438 1225.808594 491.890625 1226.039062 495.265625 C 1226.273438 498.648438 1223.726562 501.574219 1220.347656 501.808594 L 973.476562 518.910156 C 973.328125 518.917969 973.183594 518.925781 973.042969 518.925781 Z M 973.042969 518.925781 " fill-opacity="1" fill-rule="nonzero"/><path fill="#04182d" d="M 973.042969 558.136719 C 969.851562 558.136719 967.15625 555.664062 966.933594 552.433594 C 966.699219 549.054688 969.246094 546.125 972.625 545.890625 L 1219.5 528.789062 C 1222.972656 528.5625 1225.808594 531.105469 1226.039062 534.476562 C 1226.273438 537.859375 1223.726562 540.785156 1220.347656 541.019531 L 973.476562 558.125 C 973.328125 558.132812 973.183594 558.136719 973.042969 558.136719 Z M 973.042969 558.136719 " fill-opacity="1" fill-rule="nonzero"/><path stroke-linecap="butt" transform="matrix(5.85339, 0, 0, 5.85339, 914.763309, 447.545282)" fill="none" stroke-linejoin="miter" d="M 30.452834 42.981507 C 20.609446 42.981507 15.541603 49.251912 15.541603 58.804335 L 15.541603 134.672495 C 15.541603 143.93262 20.609446 150.494656 30.452834 150.494656 C 40.332925 150.494656 45.400101 143.93262 45.400101 134.672495 L 45.400101 58.804335 C 45.400101 49.251912 40.332925 42.981507 30.452834 42.981507 Z M 30.452834 42.981507 " stroke="#000000" stroke-width="2.706624" stroke-opacity="1" stroke-miterlimit="4"/><path stroke-linecap="butt" transform="matrix(5.85339, 0, 0, 5.85339, 292.733892, 447.116104)" fill="none" stroke-linejoin="miter" d="M 83.779656 95.553117 C 89.75843 90.923055 94.060157 83.449421 94.060157 74.043147 C 94.060157 54.028037 83.01354 44.47628 60.628676 44.47628 L 22.384947 44.47628 C 11.33833 44.47628 5.978856 51.330615 5.978856 61.793301 L 5.978856 131.682687 C 5.978856 142.146041 11.33833 148.999709 22.384947 148.999709 L 64.201659 148.999709 C 82.721909 148.999709 97.961475 140.651181 97.961475 119.724473 C 97.961475 107.620777 92.602001 99.417731 83.779656 95.553117 Z M 38.827074 123.625791 L 38.827074 109.589454 L 57.639623 109.589454 C 61.831905 109.589454 65.113257 111.667577 65.113257 116.443121 C 65.113257 121.219333 61.831905 123.625791 57.639623 123.625791 Z M 38.827074 83.887202 L 38.827074 69.850865 L 54.649903 69.850865 C 58.550553 69.850865 61.211938 72.839918 61.211938 77.032867 C 61.211938 81.189113 58.550553 83.887202 54.649903 83.887202 Z M 38.827074 83.887202 " stroke="#000000" stroke-width="2.706624" stroke-opacity="1" stroke-miterlimit="4"/><path stroke-linecap="butt" transform="matrix(5.85339, 0, 0, 5.85339, 2052.467023, 447.116104)" fill="none" stroke-linejoin="miter" d="M 56.72757 76.741236 C 51.222614 76.741236 46.155439 77.762279 41.525376 79.876438 L 42.40027 69.850865 L 71.675505 69.850865 C 79.149139 69.850865 84.216982 65.366284 84.216982 57.017757 C 84.216982 48.632525 79.149139 44.47628 71.675505 44.47628 L 25.374212 44.47628 C 17.937283 44.47628 11.957842 48.340894 11.046912 56.39779 L 7.76556 85.673026 C 7.76556 86.876255 7.473929 88.079484 7.473929 89.282713 C 7.473929 98.834469 14.327596 105.688136 23.879352 105.688136 C 27.78067 105.688136 30.150424 104.485575 33.467813 103.610681 C 36.420829 102.699083 39.738885 101.824189 44.80606 101.824189 C 55.269414 101.824189 59.134028 106.308103 59.134028 113.7457 C 59.134028 121.219333 52.863624 125.120651 46.30092 125.120651 C 35.837566 125.120651 28.363933 120.927702 22.385159 117.64635 C 20.598668 116.73542 18.520545 116.15149 16.442423 116.15149 C 8.968789 116.15149 3.572611 121.219333 3.572611 128.692967 C 3.572611 132.26595 5.067471 135.547301 7.473929 137.953092 C 14.947562 145.427393 30.150424 150.494569 47.795781 150.494569 C 75.248488 150.494569 91.982247 136.458899 91.982247 112.579175 C 91.982247 90.157606 80.643999 76.741236 56.72757 76.741236 Z M 56.72757 76.741236 " stroke="#000000" stroke-width="2.706624" stroke-opacity="1" stroke-miterlimit="4"/><path stroke-linecap="butt" transform="matrix(5.85339, 0, 0, 5.85339, 1288.046295, 447.545282)" fill="none" stroke-linejoin="miter" d="M 61.211955 42.981507 C 26.868877 42.981507 3.864713 63.871511 3.864713 96.719729 C 3.864713 128.109792 25.374684 150.494656 61.211955 150.494656 C 78.529644 150.494656 90.487858 146.010743 100.950545 137.953179 C 107.513248 132.886003 109.008108 128.693054 109.008108 119.72456 L 109.008108 100.621048 C 109.008108 91.069291 103.028667 83.886621 92.602017 83.886621 L 61.211955 83.886621 C 53.775025 83.886621 48.670478 89.866062 48.670478 96.719729 C 48.670478 103.610101 53.775025 109.589541 61.211955 109.589541 L 76.15989 109.589541 L 76.15989 120.490009 C 72.441425 123.479729 67.628509 125.120071 61.211955 125.120071 C 45.681425 125.120071 36.748968 114.073455 36.748968 96.719729 C 36.748968 79.402708 45.681425 68.356092 61.211955 68.356092 C 74.081767 68.356092 81.227065 73.751603 85.420015 75.538094 C 86.914875 76.121357 88.409735 76.741323 90.196227 76.741323 C 97.66986 76.741323 103.028667 72.256743 103.028667 63.871511 C 103.028667 58.804335 100.658913 55.231353 96.175 52.241632 C 88.118104 46.846121 76.743152 42.981507 61.211955 42.981507 Z M 61.211955 42.981507 " stroke="#000000" stroke-width="2.706624" stroke-opacity="1" stroke-miterlimit="4"/></svg>